<?xml version="1.0" encoding="UTF-8" standalone="no"?>
<!-- Created with Inkscape (http://www.inkscape.org/) -->

<svg
   width="255.99998"
   height="255.99998"
   viewBox="0 0 67.733328 67.733329"
   version="1.1"
   id="svg1"
   xml:space="preserve"
   inkscape:export-filename="itchio_icon.svg"
   inkscape:export-xdpi="96"
   inkscape:export-ydpi="96"
   inkscape:version="1.4 (1:1.4+202410161351+e7c3feb100)"
   sodipodi:docname="mail_icon.svg"
   xmlns:inkscape="http://www.inkscape.org/namespaces/inkscape"
   xmlns:sodipodi="http://sodipodi.sourceforge.net/DTD/sodipodi-0.dtd"
   xmlns="http://www.w3.org/2000/svg"
   xmlns:svg="http://www.w3.org/2000/svg"><sodipodi:namedview
     id="namedview1"
     pagecolor="#505050"
     bordercolor="#eeeeee"
     borderopacity="1"
     inkscape:showpageshadow="0"
     inkscape:pageopacity="0"
     inkscape:pagecheckerboard="0"
     inkscape:deskcolor="#505050"
     inkscape:document-units="px"
     showguides="true"
     inkscape:zoom="3.28125"
     inkscape:cx="77.409524"
     inkscape:cy="144.7619"
     inkscape:window-width="1920"
     inkscape:window-height="1048"
     inkscape:window-x="0"
     inkscape:window-y="32"
     inkscape:window-maximized="1"
     inkscape:current-layer="g5"><sodipodi:guide
       position="0,33.866662"
       orientation="0,1"
       id="guide1"
       inkscape:locked="false"
       inkscape:label=""
       inkscape:color="rgb(0,134,229)" /><sodipodi:guide
       position="0,42.333329"
       orientation="0,1"
       id="guide2"
       inkscape:locked="false"
       inkscape:label=""
       inkscape:color="rgb(0,134,229)" /><sodipodi:guide
       position="0,25.399996"
       orientation="0,1"
       id="guide3"
       inkscape:locked="false"
       inkscape:label=""
       inkscape:color="rgb(0,134,229)" /><sodipodi:guide
       position="33.866666,67.733329"
       orientation="-1,0"
       id="guide4"
       inkscape:locked="false"
       inkscape:label=""
       inkscape:color="rgb(0,134,229)" /><inkscape:page
       x="0"
       y="0"
       width="67.73333"
       height="67.73333"
       id="page2"
       margin="0"
       bleed="0" /></sodipodi:namedview><defs
     id="defs1"><inkscape:path-effect
       effect="fillet_chamfer"
       id="path-effect5"
       is_visible="true"
       lpeversion="1"
       nodesatellites_param="F,0,0,1,0,0,0,1 @ F,0,0,1,0,1.748097,0,1 @ F,0,0,1,0,0,0,1 @ F,0,0,1,0,0,0,1 @ F,0,0,1,0,0,0,1 @ F,0,0,1,0,0,0,1 @ F,0,0,1,0,0,0,1"
       radius="0"
       unit="px"
       method="auto"
       mode="F"
       chamfer_steps="1"
       flexible="false"
       use_knot_distance="true"
       apply_no_radius="true"
       apply_with_radius="true"
       only_selected="false"
       hide_knots="false" /><inkscape:path-effect
       effect="fillet_chamfer"
       id="path-effect4"
       is_visible="true"
       lpeversion="1"
       nodesatellites_param="F,0,0,1,0,0,0,1 @ F,0,0,1,0,0,0,1 @ F,0,0,1,0,0,0,1 @ F,0,0,1,0,1.8497422,0,1 @ F,0,0,1,0,0,0,1 @ F,0,0,1,0,0,0,1 @ F,0,0,1,0,0,0,1"
       radius="0"
       unit="px"
       method="auto"
       mode="F"
       chamfer_steps="1"
       flexible="false"
       use_knot_distance="true"
       apply_no_radius="true"
       apply_with_radius="true"
       only_selected="false"
       hide_knots="false" /></defs><g
     inkscape:label="Capa 1"
     inkscape:groupmode="layer"
     id="layer1"
     style="display:inline"><g
       style="display:inline;fill:none"
       id="g233"
       transform="matrix(0.80379708,0,0,0.80379708,4.0700103,2.1167547)"
       inkscape:label="Mastodon Logo m transparente"><path
         id="path1-4"
         style="fill:#ffffff;fill-opacity:1;stroke-width:1.06667"
         d="m 36.312753,-2.6334441 c -13.855484,0 -16.826339,0.8485114 -18.404581,1.0821384 -9.0939846,1.34432165 -17.39772864,7.7579422 -19.4126571,16.9192117 -0.9691556,4.511793 -1.0729082,9.512337 -0.892867,14.100716 0.2566537,6.579849 0.3035146,13.147603 0.9010962,19.700679 0.4131205,4.352965 1.13732342,8.672736 2.16016212,12.923942 1.91533048,7.851529 9.66866878,14.385275 17.26483878,17.050879 8.13281,2.77995 16.875104,3.241717 25.255381,1.333128 0.921921,-0.214507 1.833103,-0.461328 2.73209,-0.744742 2.037869,-0.647253 4.425666,-1.374215 6.180122,-2.645684 0.02411,-0.01792 0.04373,-0.03938 0.0576,-0.06583 0.01397,-0.02656 0.02373,-0.05644 0.02468,-0.08641 V 70.58576 c -4.27e-4,-0.02795 -0.0081,-0.05723 -0.02058,-0.08229 -0.01248,-0.02507 -0.03141,-0.04855 -0.05349,-0.06583 -0.02208,-0.01728 -0.04675,-0.02684 -0.07406,-0.03292 -0.02731,-0.0061 -0.05509,-0.0063 -0.08229,0 -5.36918,1.282242 -10.872323,1.92342 -16.392544,1.913287 -9.500065,0 -12.056425,-4.505041 -12.78816,-6.381736 -0.588054,-1.621975 -0.961607,-3.313427 -1.11094,-5.032149 -0.0016,-0.02891 0.0047,-0.05996 0.01646,-0.08641 0.01163,-0.02645 0.03109,-0.04759 0.05349,-0.06583 0.0224,-0.01835 0.04579,-0.03085 0.07406,-0.03703 0.02827,-0.0062 0.05836,-0.0073 0.08641,0 5.279686,1.273602 10.693835,1.91478 16.125095,1.913287 1.306241,0 2.606738,0.0015 3.912979,-0.03292 5.462514,-0.153173 11.219753,-0.431865 16.59416,-1.481253 0.134081,-0.02688 0.267777,-0.05196 0.382657,-0.08641 8.477238,-1.627843 16.54797,-6.734153 17.367704,-19.671876 0.03061,-0.509335 0.106979,-5.338879 0.106979,-5.867412 0.0037,-1.79627 0.576315,-12.740699 -0.08641,-19.466147 -1.21812,-9.0540318 -9.107705,-16.19080096 -18.46217,-17.5734267 -1.578242,-0.233627 -7.560706,-1.0821384 -21.41235,-1.0821384 z M 24.754857,11.154562 c 4.562353,0 8.012717,1.75402 10.311174,5.258452 l 2.217767,3.723708 2.22188,-3.723708 c 2.29835,-3.504432 5.744158,-5.258452 10.298831,-5.258452 3.937925,0 7.113048,1.385629 9.541744,4.085792 2.344323,2.704004 3.516424,6.354538 3.513864,10.953051 V 48.687894 H 53.947905 V 26.855855 c 0,-4.595953 -1.91813,-6.937207 -5.813922,-6.937207 -4.282672,0 -6.426997,2.772848 -6.426997,8.249762 V 40.117193 H 32.848264 V 28.16841 c 0,-5.476914 -2.148439,-8.249762 -6.431111,-8.249762 -3.872858,0 -5.809807,2.341254 -5.809807,6.937207 V 48.687894 H 11.699249 V 26.193405 c 0,-4.595953 1.170988,-8.246487 3.517978,-10.953051 2.42091,-2.700163 5.595972,-4.085792 9.53763,-4.085792 z" /></g><path
       id="path172"
       d="m 33.865552,35.861963 v 0.0022 c -0.0044,0.0044 -5.983566,5.495781 -7.060648,7.449107 l 3.915472,-0.156725 V 46.571 c 0,0.158914 1.571481,0.09491 3.145176,0.0219 v 0 c 1.573696,0.07283 3.145177,0.136829 3.145177,-0.0219 v -3.414455 l 3.915472,0.156725 c -1.07488,-1.953326 -7.060649,-7.449107 -7.060649,-7.449107 z m -12.587336,-6.455892 -0.0022,0.0044 h 0.0044 c 2.222591,0.0044 4.193573,0 6.639088,2.666225 1.924627,-0.200833 3.933128,-0.302375 5.94604,-0.300185 v 0 c 2.012912,-0.0022 4.023622,0.09929 5.948249,0.300185 2.443307,-2.668433 4.416491,-2.661814 6.63688,-2.666225 h 0.0044 v -0.0044 c 1.048397,0 5.24638,0 8.170847,8.214986 l 3.140759,11.26746 c 2.328538,8.382728 -0.746015,8.587996 -4.579816,8.594615 -5.683393,-0.209654 -8.830778,-4.339241 -8.830778,-8.466602 -3.147385,0.514282 -6.817867,0.774707 -10.490551,0.774707 v 0 c -3.672684,0 -7.343165,-0.260456 -10.488342,-0.774707 0,4.127361 -3.149593,8.256923 -8.832987,8.466602 -3.8338,-0.0069 -6.906145,-0.211906 -4.5798152,-8.594615 l 3.1429682,-11.26746 c 2.924466,-8.214986 7.12245,-8.214986 8.17084,-8.214986 m 5.606145,-7.250464 c -0.355368,0.620204 -0.794572,1.187447 -1.306626,1.684054 -1.405953,1.372838 -3.328372,2.2248 -5.449439,2.2248 -2.041605,0.0022 -4.001549,-0.79678 -5.46047,-2.2248 -0.509839,-0.498828 -0.896101,-1.030741 -1.249241,-1.650944 h -0.0022 c -0.353115,0.622393 -0.845336,1.154337 -1.355182,1.653146 -1.461129,1.425818 -3.4210739,2.2248 -5.4604758,2.222598 -0.2560146,0 -0.5231032,-0.07064 -0.7371808,-0.143461 -0.3001853,3.112073 -0.4260029,6.087299 -0.4701109,8.254714 v 0.01314 c -0.00688,1.101369 -0.011262,2.006292 -0.017518,3.266576 0.059437,6.530933 -0.6466935,21.168702 2.8803212,24.764137 5.4648803,1.275731 15.5206253,1.856206 25.6094733,1.858415 h 0.0022 c 10.086639,-0.0022 20.142384,-0.582665 25.609473,-1.858415 3.524806,-3.595435 2.820728,-18.233204 2.878113,-24.764137 -0.0044,-1.260284 -0.01126,-2.165207 -0.01564,-3.266576 l -0.0022,-0.01314 c -0.04442,-2.169624 -0.169926,-5.142641 -0.467921,-8.256923 -0.216286,0.07502 -0.481123,0.145651 -0.737187,0.145651 -2.041604,0.0022 -4.001549,-0.79678 -5.46047,-2.222598 -0.509839,-0.498828 -1.002042,-1.032942 -1.357391,-1.653146 v 0 c -0.355367,0.618014 -0.741597,1.152128 -1.249241,1.650944 -1.45892,1.425811 -3.421074,2.2248 -5.460469,2.222591 -2.121068,0 -4.045695,-0.851955 -5.44944,-2.222591 -0.512029,-0.498828 -0.953486,-1.066052 -1.308834,-1.684053 -0.350925,0.618014 -0.787952,1.185237 -1.295589,1.684053 -1.458927,1.42802 -3.421074,2.2248 -5.460476,2.2248 -0.07502,0 -0.147903,-0.0044 -0.222918,-0.0069 h -0.0022 c -0.07283,0.0022 -0.147903,0.0069 -0.222918,0.0069 -2.039395,0.0022 -4.001549,-0.79678 -5.460469,-2.2248 -0.50765,-0.498828 -0.944658,-1.066052 -1.295589,-1.684053 z M 9.0396143,4.0305525 C 6.1085282,5.7697816 0.33684938,12.400035 0.28387587,14.139265 v 2.878112 c 0,3.650618 3.41003753,6.855387 6.50665733,6.855387 3.7168298,0 6.8156578,-3.081173 6.8156578,-6.738403 0,3.65723 2.992888,6.738403 6.71192,6.738403 3.719038,0 6.614806,-3.081173 6.614806,-6.738403 0,3.65723 3.180494,6.738403 6.899526,6.738403 h 0.06845 c 3.719038,0 6.899532,-3.081173 6.899532,-6.738403 0,3.65723 2.895768,6.738403 6.614807,6.738403 3.719032,0 6.709711,-3.081173 6.709711,-6.738403 0,3.65723 3.098828,6.738403 6.817866,6.738403 3.09662,0 6.506651,-3.204769 6.506651,-6.855387 V 14.139265 C 67.394399,12.400035 61.622602,5.7675731 58.693724,4.0305525 49.587054,3.7105342 43.274629,3.6553521 33.865577,3.6553521 24.456526,3.6575607 11.630824,3.803255 9.0374308,4.0305525 Z"
       style="display:none;fill:#ffffff;fill-opacity:1;fill-rule:nonzero;stroke:none;stroke-width:2.20714"
       clip-path="none"
       inkscape:label="Itch Logo" /><g
       id="g5"
       inkscape:label="Mail Logo"
       style="display:none"><path
         id="rect1"
         style="fill:#ffffff;fill-opacity:1;stroke:none;stroke-width:0.283586;stroke-dasharray:none"
         d="M 67.733332,26.402523 35.42918,42.607835 a 3.4904438,3.4904438 179.96226 0 1 -3.126059,0.0021 L 0,26.458334 V 54.76875 c 0,0.732896 0.59002084,1.322917 1.3229167,1.322917 H 66.410416 c 0.732896,0 1.322916,-0.590021 1.322916,-1.322917 z"
         inkscape:label="rect1"
         inkscape:path-effect="#path-effect5"
         inkscape:original-d="M 67.733332,26.402523 33.866666,43.391667 0,26.458334 V 54.76875 c 0,0.732896 0.59002084,1.322917 1.3229167,1.322917 H 66.410416 c 0.732896,0 1.322916,-0.590021 1.322916,-1.322917 z" /><path
         id="path4"
         style="display:inline;fill:#ffffff;fill-opacity:1;stroke:none;stroke-width:0.283586;stroke-dasharray:none"
         d="M 1.3229167,11.641666 C 0.59002084,11.641666 0,12.231687 0,12.964582 v 11.377084 l 32.212206,16.106103 a 3.6933998,3.6933998 179.96226 0 0 3.307828,-0.0022 L 67.733332,24.285855 V 12.964582 c 10e-7,-0.732895 -0.59002,-1.322916 -1.322916,-1.322916 z"
         inkscape:path-effect="#path-effect4"
         inkscape:original-d="M 1.3229167,11.641666 C 0.59002084,11.641666 0,12.231687 0,12.964582 V 24.341666 L 33.866666,41.274999 67.733332,24.285855 V 12.964582 c 10e-7,-0.732895 -0.59002,-1.322916 -1.322916,-1.322916 z" /></g></g></svg>
